PathFileType	4	(X/Y/Z)	output.trc
DataRate	CameraRate	NumFrames	NumMarkers	Units	OrigDataRate	OrigDataStartFrame	OrigNumFrames
100	100	13	23	m	100	1	5257
Frame#	Time	C7			T8			EL			EM			US			RS			AA			Fore_Clus_1			Fore_Clus_2			Fore_Clus_3			Fore_Clus_4			Hum_Clus_1			Hum_Clus_2			Hum_Clus_3			Hum_Clus_4			Thor_Clus_1			Thor_Clus_2			Thor_Clus_3			Thor_Clus_4			IJ			PX			GH			Thor_Clus_5		
		X1	Y1	Z1	X2	Y2	Z2	X3	Y3	Z3	X4	Y4	Z4	X5	Y5	Z5	X6	Y6	Z6	X7	Y7	Z7	X8	Y8	Z8	X9	Y9	Z9	X10	Y10	Z10	X11	Y11	Z11	X12	Y12	Z12	X13	Y13	Z13	X14	Y14	Z14	X15	Y15	Z15	X16	Y16	Z16	X17	Y17	Z17	X18	Y18	Z18	X19	Y19	Z19	X20	Y20	Z20	X21	Y21	Z21	X22	Y22	Z22	X23	Y23	Z23
0	0.000000	-0.005329	1.643323	-0.049132	-0.019738	1.407302	-0.132304	-0.200748	1.195006	0.096689	-0.153607	1.191482	0.044540	-0.162475	0.902660	0.157908	-0.111886	0.913456	0.188460	-0.142782	1.520541	0.119914	-0.184452	0.950542	0.182540	-0.174534	0.897995	0.193654	-0.151886	0.904968	0.208600	-0.147849	0.962123	0.206544	-0.169833	1.306106	0.161773	-0.212581	1.323002	0.122360	-0.208313	1.386296	0.127622	-0.160637	1.380037	0.161437	0.152614	1.528491	0.052551	0.123644	1.469489	0.105346	0.119574	1.521796	0.081531	0.171374	1.478651	0.062797	0.078859	1.556591	0.028748	0.121141	1.353381	0.042087	-0.120421	1.499925	0.097329	0.116830	1.492031	0.101251
1	0.010000	-0.005382	1.643348	-0.049064	-0.019788	1.407342	-0.132278	-0.200816	1.194969	0.096787	-0.153700	1.191434	0.044615	-0.162470	0.902655	0.157886	-0.111867	0.913452	0.188415	-0.142826	1.520533	0.119964	-0.184424	0.950504	0.182531	-0.174531	0.897972	0.193651	-0.151810	0.904742	0.208503	-0.147817	0.962076	0.206532	-0.169862	1.306083	0.161830	-0.212578	1.322994	0.122346	-0.208342	1.386267	0.127674	-0.160685	1.380018	0.161508	0.152597	1.528465	0.052581	0.123587	1.469452	0.105428	0.119522	1.521797	0.081564	0.171328	1.478645	0.062826	0.078811	1.556604	0.028797	0.121098	1.353393	0.042099	-0.120469	1.499884	0.097333	0.116775	1.492021	0.101295
2	0.020000	-0.005442	1.643371	-0.048997	-0.019848	1.407377	-0.132246	-0.200891	1.194931	0.096898	-0.153805	1.191379	0.044701	-0.162445	0.902634	0.157872	-0.111842	0.913434	0.188399	-0.142870	1.520525	0.120023	-0.184414	0.950477	0.182543	-0.174469	0.897924	0.193605	-0.151769	0.904743	0.208479	-0.147778	0.962041	0.206526	-0.169887	1.306059	0.161878	-0.212885	1.322829	0.122958	-0.208370	1.386240	0.127723	-0.160721	1.379994	0.161568	0.152402	1.528723	0.052654	0.123562	1.469470	0.105416	0.119482	1.521795	0.081591	0.171273	1.478654	0.062850	0.078759	1.556617	0.028845	0.121054	1.353406	0.042112	-0.120515	1.499838	0.097330	0.116726	1.492002	0.101312
3	0.030000	-0.005508	1.643381	-0.048942	-0.019905	1.407394	-0.132211	-0.200971	1.194892	0.097019	-0.153916	1.191321	0.044795	-0.162393	0.902595	0.157869	-0.111806	0.913408	0.188418	-0.142915	1.520512	0.120077	-0.184387	0.950450	0.182527	-0.174440	0.897903	0.193591	-0.151771	0.904770	0.208498	-0.147749	0.962018	0.206503	-0.169897	1.306038	0.161934	-0.212904	1.322794	0.123024	-0.208380	1.386222	0.127791	-0.160728	1.379982	0.161624	0.152499	1.528474	0.052641	0.123493	1.469464	0.105460	0.119440	1.521794	0.081638	0.171220	1.478658	0.062883	0.078705	1.556626	0.028886	0.121014	1.353416	0.042131	-0.120561	1.499790	0.097323	0.116690	1.492016	0.101355
4	0.040000	-0.005580	1.643388	-0.048887	-0.019974	1.407405	-0.132169	-0.201053	1.194853	0.097144	-0.154029	1.191261	0.044894	-0.162324	0.902540	0.157875	-0.111765	0.913367	0.188466	-0.142958	1.520500	0.120143	-0.184380	0.950424	0.182531	-0.174416	0.897872	0.193596	-0.151872	0.905132	0.208666	-0.147740	0.961994	0.206510	-0.169893	1.306015	0.162013	-0.212958	1.322747	0.123129	-0.208400	1.386194	0.127879	-0.160737	1.379965	0.161684	0.152434	1.528504	0.052668	0.123448	1.469462	0.105491	0.119376	1.521792	0.081659	0.171162	1.478656	0.062913	0.078648	1.556634	0.028924	0.120971	1.353425	0.042152	-0.120603	1.499740	0.097319	0.116635	1.492012	0.101383
5	0.050000	-0.005657	1.643386	-0.048841	-0.020045	1.407403	-0.132122	-0.201133	1.194814	0.097270	-0.154139	1.191203	0.044994	-0.162232	0.902470	0.157892	-0.111716	0.913317	0.188546	-0.143001	1.520486	0.120208	-0.184358	0.950409	0.182545	-0.174403	0.897841	0.193592	-0.151866	0.905125	0.208676	-0.147717	0.961963	0.206512	-0.169888	1.305987	0.162082	-0.212962	1.322722	0.123206	-0.208414	1.386174	0.127971	-0.160716	1.379940	0.161746	0.152400	1.528513	0.052702	0.123397	1.469467	0.105526	0.119325	1.521798	0.081692	0.171111	1.478667	0.062936	0.078589	1.556637	0.028957	0.120929	1.353432	0.042177	-0.120643	1.499691	0.097318	0.116584	1.492012	0.101426
6	0.060000	-0.005738	1.643376	-0.048802	-0.020120	1.407388	-0.132071	-0.201209	1.194777	0.097394	-0.154242	1.191147	0.045095	-0.162123	0.902387	0.157919	-0.111662	0.913258	0.188656	-0.143043	1.520472	0.120275	-0.184357	0.950384	0.182563	-0.174389	0.897804	0.193595	-0.151695	0.904686	0.208497	-0.147721	0.961939	0.206526	-0.169896	1.305962	0.162155	-0.212998	1.322707	0.123295	-0.208432	1.386159	0.128069	-0.160735	1.379925	0.161832	0.152363	1.528495	0.052698	0.123356	1.469466	0.105558	0.119286	1.521806	0.081710	0.171067	1.478678	0.062961	0.078528	1.556638	0.028986	0.120888	1.353436	0.042207	-0.120682	1.499645	0.097325	0.116528	1.492020	0.101460
7	0.070000	-0.005823	1.643364	-0.048763	-0.020205	1.407369	-0.132014	-0.201278	1.194743	0.097512	-0.154335	1.191097	0.045192	-0.162005	0.902292	0.157957	-0.111608	0.913190	0.188789	-0.143084	1.520461	0.120351	-0.184352	0.950354	0.182577	-0.174378	0.897782	0.193610	-0.151804	0.905014	0.208660	-0.147718	0.961912	0.206566	-0.169894	1.305934	0.162226	-0.213045	1.322674	0.123384	-0.208461	1.386136	0.128169	-0.160733	1.379884	0.161905	0.152165	1.528755	0.052748	0.123317	1.469482	0.105586	0.119229	1.521820	0.081742	0.171015	1.478692	0.062978	0.078466	1.556636	0.029013	0.120843	1.353439	0.042239	-0.120718	1.499602	0.097344	0.116484	1.492016	0.101481
8	0.080000	-0.005908	1.643342	-0.048735	-0.020286	1.407337	-0.131956	-0.201338	1.194712	0.097621	-0.154417	1.191054	0.045283	-0.161872	0.902190	0.158005	-0.111549	0.913119	0.188947	-0.143125	1.520446	0.120420	-0.184328	0.950326	0.182591	-0.174392	0.897735	0.193636	-0.151798	0.904991	0.208676	-0.147713	0.961887	0.206575	-0.169944	1.305901	0.162331	-0.213022	1.322672	0.123477	-0.208492	1.386120	0.128259	-0.160772	1.379861	0.161980	0.152132	1.528747	0.052758	0.123285	1.469477	0.105590	0.119181	1.521833	0.081753	0.170977	1.478696	0.062979	0.078404	1.556631	0.029034	0.120801	1.353439	0.042275	-0.120754	1.499564	0.097373	0.116457	1.492032	0.101499
9	0.090000	-0.005995	1.643321	-0.048706	-0.020376	1.407304	-0.131894	-0.201388	1.194685	0.097720	-0.154484	1.191019	0.045368	-0.161740	0.902083	0.158063	-0.111494	0.913043	0.189120	-0.143164	1.520437	0.120496	-0.184428	0.950406	0.182690	-0.174360	0.897719	0.193671	-0.151775	0.904984	0.208698	-0.147714	0.961868	0.206627	-0.169963	1.305874	0.162393	-0.213113	1.322639	0.123555	-0.208531	1.386101	0.128336	-0.160784	1.379848	0.162065	0.152193	1.528536	0.052738	0.123254	1.469494	0.105606	0.119124	1.521844	0.081774	0.170919	1.478714	0.062986	0.078341	1.556625	0.029055	0.120755	1.353437	0.042311	-0.120788	1.499533	0.097416	0.116422	1.492042	0.101519
10	0.100000	-0.006081	1.643295	-0.048682	-0.020464	1.407265	-0.131832	-0.201429	1.194662	0.097809	-0.154539	1.190993	0.045444	-0.161605	0.901975	0.158130	-0.111442	0.912968	0.189307	-0.143203	1.520426	0.120569	-0.183675	0.949619	0.182279	-0.174381	0.897673	0.193716	-0.151772	0.904956	0.208736	-0.147711	0.961847	0.206662	-0.169993	1.305852	0.162465	-0.213086	1.322637	0.123645	-0.208564	1.386087	0.128411	-0.160819	1.379828	0.162134	0.152110	1.528567	0.052746	0.123202	1.469501	0.105619	0.119083	1.521842	0.081786	0.170873	1.478717	0.062994	0.078278	1.556617	0.029072	0.120710	1.353434	0.042349	-0.120823	1.499508	0.097472	0.116301	1.492068	0.101545
11	0.110000	-0.006165	1.643268	-0.048663	-0.020550	1.407224	-0.131772	-0.201461	1.194642	0.097886	-0.154580	1.190975	0.045512	-0.161474	0.901869	0.158205	-0.111393	0.912896	0.189504	-0.143242	1.520416	0.120638	-0.183124	0.949037	0.182004	-0.174387	0.897653	0.193778	-0.151758	0.904936	0.208785	-0.147713	0.961816	0.206718	-0.170033	1.305849	0.162539	-0.213139	1.322615	0.123702	-0.208602	1.386074	0.128480	-0.160868	1.379803	0.162210	0.152059	1.528578	0.052752	0.123151	1.469498	0.105643	0.119043	1.521856	0.081800	0.170834	1.478738	0.062995	0.078217	1.556608	0.029087	0.120666	1.353431	0.042387	-0.120859	1.499489	0.097539	0.116214	1.492104	0.101563
12	0.120000	-0.006250	1.643245	-0.048640	-0.020639	1.407188	-0.131712	-0.201484	1.194627	0.097954	-0.154612	1.190966	0.045573	-0.161356	0.901769	0.158288	-0.111354	0.912826	0.189702	-0.143281	1.520409	0.120710	-0.183199	0.949073	0.182122	-0.174409	0.897611	0.193851	-0.151770	0.904903	0.208845	-0.147717	0.961804	0.206771	-0.170085	1.305817	0.162596	-0.213190	1.322578	0.123808	-0.208659	1.386052	0.128558	-0.160910	1.379785	0.162299	0.151989	1.528586	0.052778	0.123118	1.469517	0.105657	0.118986	1.521858	0.081819	0.170784	1.478747	0.063008	0.078156	1.556601	0.029103	0.120619	1.353428	0.042422	-0.120895	1.499477	0.097618	0.116190	1.492088	0.101581
